<svg xmlns="http://www.w3.org/2000/svg" viewBox="0 0 140 140" role="img" aria-label="Crew Dragon">
  <g transform="rotate(-20 70 70)">
    <path d="M70 10c25 16 41 54 37 91-2 18-19 28-37 28s-35-10-37-28C29 64 45 26 70 10Z" fill="#f4f4f5"/>
    <path d="M45 88c17 9 33 9 50 0l-4 25c-11 9-31 9-42 0l-4-25Z" fill="#2f3238"/>
    <path d="M54 47c9-7 23-7 32 0" fill="none" stroke="#c8ced8" stroke-width="5"/>
    <circle cx="57" cy="66" r="5" fill="#20242b"/>
    <circle cx="83" cy="66" r="5" fill="#20242b"/>
    <text x="55" y="39" fill="#1d4ed8" font-family="Arial" font-size="8" font-weight="700">SPACEX</text>
  </g>
</svg>
